PathFileType	4	(X/Y/Z)	C:/Users/beibeiliu/ov580/test_trc\sequence.33_training_dense_right.trc
DataRate	CameraRate	NumFrames	NumMarkers	Units	OrigDataRate	OrigDataStartFrame	OrigNumFrames
120	120	10	19	mm	120	1	96
Frame#	Time	ThumbCMC			ThumbMCP			ThumbIP			ThumbTip			IndexMCP			IndexPIP			IndexTip			MiddleMCP			MiddlePIP			MiddleTip			RingMCP			RingPIP			RingTip			PinkyMCP			PinkyPIP			PinkyTip			BackHand1			BackHand2			BackHand3	
		X0	Y0	Z0	X1	Y1	Z1	X2	Y2	Z2	X3	Y3	Z3	X4	Y4	Z4	X5	Y5	Z5	X6	Y6	Z6	X7	Y7	Z7	X8	Y8	Z8	X9	Y9	Z9	X10	Y10	Z10	X11	Y11	Z11	X12	Y12	Z12	X13	Y13	Z13	X14	Y14	Z14	X15	Y15	Z15	X16	Y16	Z16	X17	Y17	Z17	X18	Y18	Z18	
0	0	201.585	15.6905	128.722	210.702	27.4848	101.648	224.989	27.7329	77.7597	236.081	29.0764	59.7571	249.477	-15.5654	80.1646	263.844	-19.0618	58.2374	280.16	-20.4648	46.7355	245.337	-44.1724	78.747	252.69	-48.2689	57.2768	267.743	-60.8043	37.9381	218.527	-58.1115	77.0019	204.714	-61.9152	53.834	185.539	-64.2061	31.7358	202.102	-64.8568	88.7009	178.743	-55.5975	75.3352	157.228	-37.1082	76.353	223.507	-44.3629	132.311	210.884	-31.0119	159.937	222.926	-8.13089	138.293	
1	0.00833333	191.733	25.466	121.188	192.724	33.5458	99.4315	208.201	39.0793	73.141	214.942	46.2769	55.2075	244.171	9.49374	77.2216	259.679	12.6978	56.1115	279.041	9.54917	40.7631	248.879	-14.5078	76.3203	260.868	-20.0539	51.5785	278.179	-26.992	33.9801	230.344	-38.5548	73.2101	219.94	-53.0535	56.5932	201.295	-57.2165	31.4151	218.224	-51.9103	88.9779	192.425	-52.0154	73.4587	168.135	-35.852	73.788	229.494	-23.9324	130.298	212.992	-15.7565	157.025	219.415	10.1875	133.139	
2	0.0166667	172.507	31.8983	118.936	175.86	37.3222	91.4387	185.092	46.6537	65.6844	193.179	50.2553	47.021	230.871	29.2835	70.0027	240.456	35.521	50.3144	260.477	36.6875	34.1723	245.527	7.68576	66.5767	255.658	4.95324	46.0917	274.725	0.760955	25.8653	234.932	-22.4064	72.1696	226.967	-35.0851	53.1437	209.825	-50.8087	32.612	227.877	-36.1682	84.8522	205.352	-46.2449	73.106	177.81	-41.4275	71.2555	229.66	-3.51288	125.467	214.403	-0.723503	152.031	208.254	24.8735	129.213	
3	0.025	155.127	31.1357	110.542	150.871	34.5017	85.9938	160.643	40.4756	57.0023	163.67	44.674	36.1606	205.33	39.5622	60.8636	216.203	45.5591	35.418	233.338	49.7147	20.1358	230.89	20.398	61.979	242.079	17.4106	37.9291	257.181	15.207	17.4913	228.772	-6.72596	65.2533	224.445	-28.0873	47.2148	208.667	-47.3648	33.468	227.692	-20.9086	83.1455	210.923	-38.7137	72.2303	177.136	-43.4692	75.3387	218.282	17.5675	118.213	201.74	14.9574	147.198	189.281	36.6065	116.343	
4	0.0333333	136.183	27.4388	105.613	131.241	24.4353	82.4649	134.781	28.1343	53.4423	138.448	28.5575	30.598	182.706	37.7446	48.7852	185.552	40.6236	27.5167	200.992	44.9375	7.57132	204.238	27.5524	54.7868	217.8	21.2205	28.2052	230.319	19.7933	7.64246	213.134	2.75857	65.1698	212.18	-23.2377	44.877	201.579	-50.4321	37.1316	219.441	-10.3357	83.2544	202.79	-36.2486	72.1384	175.263	-44.1374	83.3312	199.851	27.9268	113.758	190.178	28.2448	142.488	170.949	38.3745	114.429	
5	0.0416667	122.656	22.4409	103.433	117.449	15.2384	82.6517	116.166	13.5688	57.3931	118.553	11.3448	33.5246	159.073	25.7196	42.5069	167.804	23.5523	18.9924	171.206	27.3714	-5.87477	187.773	19.1443	48.7016	198.359	10.0675	26.2543	207.062	4.35718	2.50136	197.82	-2.19924	58.8417	202.46	-27.9722	49.0262	190.507	-54.5265	46.0968	208.528	-11.1108	78.8841	197.129	-34.8372	74.0955	168.692	-48.5427	91.7574	189.788	30.0082	105.725	175.887	35.3003	131.607	156.534	38.5181	103.905	
6	0.05	115.101	18.6668	105.249	103.111	10.6575	83.9587	101.704	3.78159	55.2472	100.544	-2.98514	36.2252	146.333	9.39361	40.3207	146.46	2.33264	16.1705	157.691	0.137494	-5.36057	171.921	3.56564	43.6948	180.212	-11.061	24.6146	190.324	-23.0435	1.5006	188.712	-15.0791	60.3532	188.938	-42.5595	55.0844	178.54	-69.762	59.4261	195.955	-15.634	79.699	186.632	-45.9649	82.4121	159.256	-52.2148	100.562	176.49	28.5415	100.333	165.5	36.9195	126.161	144.757	34.4151	98.5044	
7	0.0583333	106.831	20.7535	110.161	95.8116	9.60974	87.1852	92.3718	-0.604694	61.4543	88.8114	-8.76674	40.6126	132.558	-3.74369	41.7891	134.809	-17.4178	19.5945	138.669	-22.621	-3.7246	161.019	-15.9301	46.0641	163.927	-33.9212	29.2418	173.698	-51.9104	6.777	174.608	-32.191	66.0934	170.529	-60.2257	66.4074	154.283	-81.9136	73.8879	184.332	-28.1118	83.8614	171.806	-54.7073	88.1715	145.223	-59.7243	110.549	171.577	18.9074	93.2753	163.11	35.0354	123.762	137.376	32.1041	97.8098	
8	0.0666667	108.851	24.6357	109.652	91.2456	17.828	91.8267	86.0162	6.76056	69.1704	77.827	-1.30744	49.56	122.956	-10.2205	46.4244	118.004	-22.3115	27.3774	121.091	-31.9841	8.25612	146.521	-25.6947	52.5436	143.294	-48.2226	36.3827	143.361	-63.3244	20.8964	155.1	-38.5938	72.9843	143.97	-65.1863	76.692	123.035	-86.8311	91.799	167.52	-42.7325	90.5808	145.953	-61.0147	98.8956	125.448	-59.7445	121.041	171.207	8.75077	97.4282	167.398	26.4138	122.649	140.318	29.2843	101.182	
9	0.075	111.731	39.562	115.788	92.6887	32.9529	95.2707	83.3017	24.5989	72.8667	73.4861	18.1214	52.6242	114.139	-6.48035	51.26	101.624	-14.9026	36.8585	99.3453	-29.4458	13.0142	125.765	-26.1955	54.7328	117.107	-46.4025	42.9355	111	-60.7697	26.82	134.886	-41.9562	79.4902	114.975	-61.1352	84.4516	90.3684	-74.1181	98.8325	146.007	-49.9535	98.078	120.04	-58.0855	107.431	97.1139	-47.5352	123.996	161.37	2.5284	101.537	168.33	17.3016	124.009	146.249	29.3573	103.744	
